Coordinates
version=1
nRows=13
nColumns=63
inDegrees=yes

Units are S.I. units (second, meters, Newtons, ...)
If the header above contains a line with 'inDegrees', this indicates whether rotational values are in degrees (yes) or radians (no).

endheader
time	pelvis_tilt	pelvis_list	pelvis_rotation	pelvis_tx	pelvis_ty	pelvis_tz	hip_flexion_r	hip_adduction_r	hip_rotation_r	knee_angle_r	knee_angle_r_beta	ankle_angle_r	subtalar_angle_r	mtp_angle_r	hip_flexion_l	hip_adduction_l	hip_rotation_l	knee_angle_l	knee_angle_l_beta	ankle_angle_l	subtalar_angle_l	mtp_angle_l	L5_S1_Flex_Ext	L5_S1_Lat_Bending	L5_S1_axial_rotation	L4_L5_Flex_Ext	L4_L5_Lat_Bending	L4_L5_axial_rotation	L3_L4_Flex_Ext	L3_L4_Lat_Bending	L3_L4_axial_rotation	L2_L3_Flex_Ext	L2_L3_Lat_Bending	L2_L3_axial_rotation	L1_L2_Flex_Ext	L1_L2_Lat_Bending	L1_L2_axial_rotation	L1_T12_Flex_Ext	L1_T12_Lat_Bending	L1_T12_axial_rotation	Abs_r3	Abs_r2	Abs_r1	Abs_t1	Abs_t2	neck_flexion	neck_bending	neck_rotation	arm_flex_r	arm_add_r	arm_rot_r	elbow_flex_r	pro_sup_r	wrist_flex_r	wrist_dev_r	arm_flex_l	arm_add_l	arm_rot_l	elbow_flex_l	pro_sup_l	wrist_flex_l	wrist_dev_l
0.000000	-0.184970	-4.016506	102.921007	0.119084	0.964995	0.598383	6.667038	-0.910899	-20.493959	9.458421	0.165081	25.446093	15.226728	0.000000	6.795546	0.448634	2.106361	5.888593	0.102775	19.184480	-12.993416	0.000000	0.009878	-0.250620	0.434086	0.018344	-0.333325	0.461216	0.016228	-0.609358	0.461216	0.011289	-0.609358	0.379825	0.009172	-0.511065	0.352695	0.005644	-0.388211	0.325565	0.070554	-2.835066	2.414256	0.000000	0.000000	7.480803	-3.428560	-8.097210	8.134363	-9.690452	53.990998	54.256607	83.715772	10.443275	-4.346200	16.940856	-7.911525	88.888931	43.929040	78.097608	1.301896	-12.713194
0.018519	-0.250893	-4.542200	102.860093	0.119750	0.964224	0.602208	7.647515	-1.269045	-21.058125	10.054177	0.175479	24.933741	15.821574	0.000000	7.945116	0.659054	2.253760	6.597310	0.115145	19.351549	-13.836848	0.000000	-0.003561	-0.249824	0.302663	-0.006612	-0.332266	0.321579	-0.005850	-0.607422	0.321579	-0.004069	-0.607422	0.264830	-0.003306	-0.509441	0.245914	-0.002035	-0.386977	0.226997	-0.025433	-2.826057	1.683320	0.000000	0.000000	5.849769	-2.752615	-7.633130	7.651105	-8.708797	53.106665	53.611522	87.823332	12.031989	-4.393919	17.136665	-7.217978	89.047127	42.296413	76.768444	3.319428	-11.899161
0.037037	-0.260704	-4.994699	102.824704	0.120325	0.963531	0.605585	8.511074	-1.531284	-21.515131	10.565751	0.184407	24.563799	16.308802	0.000000	8.975797	0.794220	2.353644	7.254718	0.126619	19.546306	-14.486365	0.000000	-0.017283	-0.245736	0.188121	-0.032095	-0.326829	0.199878	-0.028393	-0.597483	0.199878	-0.019752	-0.597483	0.164606	-0.016049	-0.501105	0.152848	-0.009875	-0.380646	0.141091	-0.123447	-2.779818	1.046271	0.000000	0.000000	4.305609	-2.197513	-7.308278	7.324322	-7.926626	52.478332	53.013511	90.243146	13.085064	-3.938080	17.360504	-6.636382	89.353112	40.940414	75.351521	4.872582	-11.255972
0.055556	-0.219381	-5.377386	102.816114	0.120813	0.962912	0.608537	9.262140	-1.704693	-21.876916	10.996009	0.191917	24.320598	16.697641	0.000000	9.894311	0.859380	2.405657	7.865181	0.137273	19.768161	-14.947061	0.000000	-0.031058	-0.238477	0.088089	-0.057677	-0.317175	0.093595	-0.051024	-0.579834	0.093595	-0.035496	-0.579834	0.077078	-0.028840	-0.486303	0.071572	-0.017746	-0.369402	0.066067	-0.221841	-2.697705	0.489924	0.000000	0.000000	2.844064	-1.753296	-7.094084	7.137945	-7.325365	52.079590	52.462033	91.161928	13.656611	-3.048787	17.602194	-6.157323	89.769932	39.837442	73.886145	6.012606	-10.761472
0.074074	-0.131901	-5.693642	102.835599	0.121216	0.962360	0.611090	9.905143	-1.796346	-22.155422	11.347820	0.198057	24.188474	16.997317	0.000000	10.707375	0.859781	2.409440	8.433064	0.147185	20.016521	-15.224028	0.000000	-0.044655	-0.228167	0.000197	-0.082928	-0.303463	0.000209	-0.073363	-0.554766	0.000209	-0.051036	-0.554766	0.000172	-0.041466	-0.465279	0.000160	-0.025516	-0.353431	0.000148	-0.318965	-2.581075	0.001096	0.000000	0.000000	1.460875	-1.410003	-6.961975	7.075907	-6.886442	51.884028	51.956541	90.766392	13.800745	-1.796144	17.851555	-5.771385	90.260634	38.963897	72.411622	6.790747	-10.393503
0.092593	-0.003238	-5.946849	102.884433	0.121537	0.961870	0.613270	10.444509	-1.813318	-22.362587	11.624052	0.202878	24.151760	17.217056	0.000000	11.421711	0.800670	2.364636	8.962731	0.156429	20.290797	-15.322360	0.000000	-0.057844	-0.214926	-0.077926	-0.107421	-0.285851	-0.082796	-0.095031	-0.522571	-0.082796	-0.066109	-0.522571	-0.068185	-0.053714	-0.438277	-0.063315	-0.033052	-0.332920	-0.058444	-0.413171	-2.431285	-0.433400	0.000000	0.000000	0.151786	-1.157676	-6.883380	7.122141	-6.591283	51.865237	51.496492	89.243254	13.571578	-0.250254	18.098410	-5.469153	90.788264	38.296180	70.967259	7.258250	-10.129908
0.111111	0.161629	-6.140388	102.963891	0.121777	0.961439	0.615100	10.884665	-1.762685	-22.510352	11.827574	0.206430	24.194789	17.366087	0.000000	12.044037	0.687295	2.270887	9.458546	0.165083	20.590397	-15.247148	0.000000	-0.070393	-0.198873	-0.148650	-0.130727	-0.264501	-0.157941	-0.115649	-0.483540	-0.157941	-0.080452	-0.483540	-0.130069	-0.065367	-0.405542	-0.120778	-0.040223	-0.308054	-0.111488	-0.502810	-2.249691	-0.826748	0.000000	0.000000	-1.087463	-0.986356	-6.829725	7.260579	-6.421315	51.996807	51.081343	86.779225	13.023223	1.518777	18.332579	-5.241212	91.315867	37.810688	69.592362	7.466362	-9.948532
0.129630	0.357723	-6.277642	103.075249	0.121940	0.961059	0.616605	11.230040	-1.651521	-22.610656	11.961253	0.208763	24.301897	17.453636	0.000000	12.581074	0.524904	2.127835	9.924875	0.173222	20.914730	-15.003487	0.000000	-0.082072	-0.180129	-0.214347	-0.152417	-0.239571	-0.227744	-0.134837	-0.437965	-0.227744	-0.093800	-0.437965	-0.187554	-0.076212	-0.367318	-0.174157	-0.046896	-0.279019	-0.160760	-0.586235	-2.037650	-1.192134	0.000000	0.000000	-2.261130	-0.886083	-6.772441	7.475154	-6.357966	52.252327	50.710548	83.561022	12.209793	3.440847	18.543883	-5.078148	91.806492	37.483822	68.326237	7.466330	-9.827216
0.148148	0.580070	-6.361991	103.219781	0.122028	0.960728	0.617811	11.485060	-1.486903	-22.675439	12.027958	0.209927	24.457416	17.488929	0.000000	13.039541	0.318745	1.935123	10.366080	0.180922	21.263205	-14.596468	0.000000	-0.092651	-0.158813	-0.277387	-0.172062	-0.211221	-0.294723	-0.152216	-0.386137	-0.294723	-0.105891	-0.386137	-0.242713	-0.086036	-0.323851	-0.225377	-0.052941	-0.246001	-0.208040	-0.661796	-1.796519	-1.542742	0.000000	0.000000	-3.373472	-0.846899	-6.682954	7.749798	-6.382663	52.605389	50.383565	79.775357	11.185402	5.445852	18.722144	-4.970545	92.223183	37.291982	67.208192	7.309400	-9.743804
0.166667	0.823691	-6.396818	103.398763	0.122043	0.960439	0.618742	11.654154	-1.275904	-22.716642	12.030558	0.209973	24.645682	17.481194	0.000000	13.426159	0.074064	1.692392	10.786526	0.188260	21.635231	-14.031183	0.000000	-0.101898	-0.135045	-0.340140	-0.189234	-0.179610	-0.361399	-0.167408	-0.328348	-0.361399	-0.116459	-0.328348	-0.297623	-0.094622	-0.275384	-0.276364	-0.058224	-0.209185	-0.255105	-0.727845	-1.527655	-1.891757	0.000000	0.000000	-4.428748	-0.858845	-6.532694	8.068444	-6.476831	53.029582	50.099848	75.608945	10.004162	7.463686	18.857181	-4.908989	92.528987	37.211566	66.277531	7.046818	-9.676139
0.185185	1.083611	-6.385504	103.613469	0.121987	0.960187	0.619424	11.741747	-1.025601	-22.746204	11.971919	0.208949	24.851027	17.439657	0.000000	13.747646	-0.203891	1.399286	11.190578	0.195312	22.030216	-13.312727	0.000000	-0.109582	-0.108945	-0.404978	-0.203505	-0.144897	-0.430289	-0.180032	-0.264890	-0.430289	-0.125241	-0.264890	-0.354356	-0.101758	-0.222162	-0.329044	-0.062615	-0.168757	-0.303733	-0.782733	-1.232413	-2.252365	0.000000	0.000000	-5.431217	-0.911961	-6.293087	8.415025	-6.621899	53.498496	49.858855	71.248500	8.720186	9.424248	18.938816	-4.884064	92.686950	37.218974	65.573563	6.729832	-9.602065
0.203704	1.380855	-6.318125	103.877753	0.121786	0.960003	0.619832	11.728855	-0.702755	-22.719649	11.791430	0.205799	25.050757	17.381675	0.000000	14.012236	-0.547522	0.932970	11.604941	0.202544	22.467231	-12.263250	0.000000	-0.111878	-0.075093	-0.478906	-0.207769	-0.099873	-0.508838	-0.183805	-0.182581	-0.508838	-0.127866	-0.182581	-0.419043	-0.103890	-0.153129	-0.389111	-0.063927	-0.116319	-0.359180	-0.799135	-0.849464	-2.663533	0.000000	0.000000	-6.373391	-1.035555	-5.856313	8.737116	-6.814891	53.849434	49.801677	67.807396	7.700397	10.761055	18.889991	-4.883869	92.436299	37.339630	65.364979	6.547966	-9.367918
0.222222	1.672638	-6.210586	104.202013	0.121521	0.959832	0.620017	11.636289	-0.371909	-22.785317	11.568812	0.201914	25.197352	17.333051	0.000000	14.225905	-0.904910	0.446103	12.017546	0.209746	22.939909	-11.088514	0.000000	-0.111496	-0.040519	-0.572740	-0.207060	-0.053891	-0.608537	-0.183178	-0.098518	-0.608537	-0.127429	-0.098518	-0.501148	-0.103536	-0.082627	-0.465352	-0.063709	-0.062764	-0.429555	-0.796408	-0.458361	-3.185410	0.000000	0.000000	-7.326536	-1.133202	-5.125413	9.038443	-6.979731	54.142068	49.777284	64.454750	6.619473	11.987208	18.735027	-4.893553	91.870700	37.432876	65.544154	6.520058	-9.099934
